<svg width="37" height="40" viewBox="0 0 37 40" fill="none" xmlns="http://www.w3.org/2000/svg">
<path d="M26.9333 28V12C26.9333 11.45 26.4833 11 25.9333 11C25.3833 11 24.9333 11.45 24.9333 12V28C24.9333 28.55 25.3833 29 25.9333 29C26.4833 29 26.9333 28.55 26.9333 28ZM19.9333 28V12C19.9333 11.45 19.4833 11 18.9333 11C18.3833 11 17.9333 11.45 17.9333 12V28C17.9333 28.55 18.3833 29 18.9333 29C19.4833 29 19.9333 28.55 19.9333 28ZM11.9333 29C12.4833 29 12.9333 28.55 12.9333 28V12C12.9333 11.45 12.4833 11 11.9333 11C11.3833 11 10.9333 11.45 10.9333 12L10.9333 28C10.9333 28.55 11.3833 29 11.9333 29Z" fill="#605F5D"/>
</svg>
