<svg width="36" height="40" viewBox="0 0 36 40" fill="none" xmlns="http://www.w3.org/2000/svg">
<path d="M17.9287 13.6421V10.8521C17.9287 10.4021 17.3887 10.1821 17.0787 10.5021L13.2787 14.2921C13.0787 14.4921 13.0787 14.8021 13.2787 15.0021L17.0687 18.7921C17.3887 19.1021 17.9287 18.8821 17.9287 18.4321V15.6421C21.6587 15.6421 24.6087 19.0621 23.7887 22.9321C23.3187 25.2021 21.4787 27.0321 19.2187 27.5021C15.6487 28.2521 12.4687 25.8021 11.9887 22.4921C11.9187 22.0121 11.4987 21.6421 11.0087 21.6421C10.4087 21.6421 9.92874 22.1721 10.0087 22.7721C10.6287 27.1621 14.8087 30.4121 19.5387 29.4921C22.6587 28.8821 25.1687 26.3721 25.7787 23.2521C26.7687 18.1221 22.8687 13.6421 17.9287 13.6421Z" fill="#605F5D"/>
</svg>
